<svg xmlns="http://www.w3.org/2000/svg" xmlns:xlink="http://www.w3.org/1999/xlink" viewBox="0 0 1024 1024"><path d="M286.78396126 504.04289189A27.04873681 27.04873681 0 0 0 294.74107001 484.84263353V349.05580234a27.15736647 27.15736647 0 0 1 27.15736585-27.15736648 27.15736647 27.15736647 0 0 0 0-54.31473234C276.98015246 267.58370352 240.42633703 304.13751833 240.42633703 349.05580234v124.54368154l-19.20025774 19.20025837a27.15736647 27.15736647 0 0 0 0 38.4005155l19.20025774 19.20025837V674.94419766c0 44.91828402 36.55381479 81.47209883 81.47209883 81.47209882a27.15736647 27.15736647 0 0 0 0-54.31473234 27.15736647 27.15736647 0 0 1-27.15736585-27.15736648v-135.78683119a27.04873681 27.04873681 0 0 0-7.95710875-19.20025836L278.82685316 512l7.9571081-7.95710811zM808.6670694 501.59872892a27.18452343 27.18452343 0 0 0-5.89314869-8.79898667L783.57366297 473.59948388V349.05580234c0-44.91828402-36.55381479-81.47209883-81.47209883-81.47209882a27.15736647 27.15736647 0 1 0 0 54.31473234 27.15736647 27.15736647 0 0 1 27.15736585 27.15736648v135.78683119a27.10305134 27.10305134 0 0 0 7.95710875 19.20025836l7.9571081 7.95710811-7.9571081 7.95710811A27.04873681 27.04873681 0 0 0 729.25892999 539.15736647v135.78683119a27.15736647 27.15736647 0 0 1-27.15736585 27.15736648 27.15736647 27.15736647 0 1 0 0 54.31473233c44.91828402 0 81.47209883-36.55381479 81.47209883-81.47209881v-124.54368154l19.20025774-19.20025837a27.18452343 27.18452343 0 0 0 5.89314869-29.60152883zM612.40078333 329.6111283a27.211681 27.211681 0 0 0-44.26650723 9.39644832l-162.835568 325.88839529a27.13020891 27.13020891 0 0 0 15.20812492 35.27741881 27.32031068 27.32031068 0 0 0 35.35889088-15.12665281l162.80841104-325.88839531a27.07589439 27.07589439 0 0 0-6.24619466-29.5472143z"></path></svg>