<svg viewBox="0 0 1024 1024"><path d="M337.99948597 263.41195693h174.00051403c21.78711731 0 38.3868257 0 59.06235508 6.22489056 18.82288355 5.6320438 32.7547819 12.44978111 49.72501888 24.82545665 12.52388741 9.18912433 23.04691639 22.30585777 31.05034721 37.27523849 8.522172 16.00686163 12.44978111 34.16279285 12.44978184 55.94990944 0 27.9379023-9.3373362 52.83746453-24.82545665 68.39969128-15.56222675 18.67467168-37.27523777 31.0503472-62.17480072 40.38768268 15.56222675 0 27.9379023 6.22489056 43.50012832 12.44978184 12.44978111 6.22489056 23.78797502 13.78368649 34.16279285 25.27009153 18.23003678 20.23089449 18.52646053 25.49240898 24.45492736 39.9430478 7.18826662 17.63719003 6.66952544 31.0503472 6.66952544 46.61257398 0 21.78711731-3.11244563 43.50012832-12.44978112 59.06235508-9.3373362 15.56222675-21.78711731 31.0503472-37.27523776 43.50012832-15.56222675 12.44978111-34.16279285 21.78711731-55.94990944 27.9379023-24.82545666 6.22489056-46.61257397 9.3373362-71.43803062 9.3373362H337.99948597V263.41195693z m68.32558498 205.05086195h93.22514794c12.44978111 0 24.82545666 0 37.27523777-3.11244563 12.44978111-3.11244563 21.19427055-6.81773731 27.93790229-12.44978112 9.55965365-8.00343082 14.00600393-13.11673417 18.67467167-21.78711731 6.96594917-12.9685223 6.22489056-21.78711731 6.22489056-34.16279284 0-18.67467168-6.81773731-36.68239102-18.67467167-49.7250189-18.00771935-19.86036517-31.34677095-25.19598596-59.06235509-24.82545664H406.32507095v146.06261244z m0 233.13697468h99.45003849c9.3373362 0 21.78711731 0 34.16279286-3.11244563 12.44978111-3.11244563 21.12016426-5.18740892 34.16279213-12.44978111 14.1542158-7.85521895 21.63890544-14.1542158 27.9379023-24.82545665 5.7061501-9.63375922 12.44978111-24.82545666 12.44978112-43.50012834 0-27.9379023-5.40972637-49.87323076-26.7522088-65.8800924-21.416588-16.00686163-47.79826748-24.2326099-81.96105961-24.23260988H406.32507095v174.00051401z m0 0"></path></svg>