<svg xmlns="http://www.w3.org/2000/svg" xmlns:xlink="http://www.w3.org/1999/xlink" viewBox="0 0 1024 1024"><path d="M409.96096997 282.85972205h366.38575693v48.33427738H409.96096997zM409.96096997 486.9377821h366.38575693v47.73755791H409.96096997zM409.96096997 691.01584214h366.38575693v47.14083844H409.96096997zM297.77770889 278.68268574v104.42590792h26.25565684V231.54184731h-20.407806l-0.47737559 1.19343893c-4.89309968 15.21634658-18.91600732 27.74745553-41.7106912 37.35463906l-1.25311091 0.41770364v26.85237632l2.98359738-1.13376699c14.14225153-5.72850695 25.0622179-11.69570169 34.60972948-17.54355253zM350.88574206 563.31787476H283.57578541c7.0412898-8.95079212 17.84191227-18.67731953 32.22285159-29.35859814 26.79270438-17.2451928 39.14479748-35.92251232 36.75791959-55.31589522-1.96917426-27.32975191-18.25961589-41.88970707-48.45362128-43.32183378-26.13631296 0-44.03789716 12.47143702-53.22737705 37.17562321l-0.65639144 1.84983038 26.4346727 11.51668583 0.59671947-2.32720594c3.99802047-14.6196271 11.87471753-21.95927664 24.10746675-22.37698027 15.87273801 0 23.27205949 6.02686669 23.27205948 19.21436705 0.83540725 10.44259079-8.77177627 22.85435586-28.70220669 36.87726348-20.82550964 15.09700268-36.87726348 32.64055522-47.7375579 52.39196982l-0.23868779 16.94683305H350.88574206v-23.27205948zM328.80712153 710.70758479c13.36651621-6.56391422 20.10944627-16.70814527 20.10944627-30.31334927-1.01442311-27.80712749-17.2451928-42.24773874-48.45362129-42.72511433-26.25565685 0.53704752-42.96380213 14.02290766-49.7664041 40.21889253l-0.53704753 2.02884622 28.04581529 6.62358616 0.41770361-2.08851817c2.68523764-13.66487594 10.08455913-20.70616575 22.5559961-21.541573 12.5907809 0.41770364 18.67731953 5.72850695 19.15469512 16.70814528C319.43862579 693.40272004 310.84586537 699.96663427 294.19739205 699.96663427h-13.7245479v25.06221789h19.27403902c16.29044163 0.59671947 24.82353011 6.80260199 26.13631294 19.63207069 0.17901585 7.99604095-1.73048647 13.66487594-5.60916306 17.60322446-3.99802047 3.99802047-10.44259079 5.72850695-19.03535122 5.72850697h-1.43212672c-14.38093932-0.59671947-22.31730832-7.87669705-24.04779481-23.27205949l-0.29835973-2.14819011-28.04581527 6.62358617 0.41770363 1.96917426c5.31080332 26.73303243 23.27205949 40.57692423 53.4063929 41.0542998 33.41629054-1.43212673 51.31787476-17.00650501 53.28704902-46.42477508-0.41770364-15.39536242-9.070136-27.210408-25.71860932-35.08710505z"></path></svg>