<svg xmlns="http://www.w3.org/2000/svg" xmlns:xlink="http://www.w3.org/1999/xlink" viewBox="0 0 1024 1024"><path d="M478.2078125 305.82124999l0 81.2025c0 11.0109375-8.926875 19.9378125-19.9378125 19.93781251-39.2934375 0-60.665625 40.2975-63.6271875 119.8378125l63.6271875 0c11.0109375 0 19.9378125 8.9353125 19.9378125 19.9378125l0 171.45c0 11.0109375-8.926875 19.9378125-19.9378125 19.9378125L288.625625 738.125c-11.019375 0-19.9378125-8.9353125-19.9378125-19.9378125l0-171.45c0-38.1290625 3.8390625-73.119375 11.4075-104.0090625 7.7625-31.674375 19.67625001-59.36624999 35.40375-82.31625 16.183125-23.5828125 36.4246875-42.08625001 60.1678125-54.97875 23.9034375-12.9684375 51.6965625-19.5496875 82.6115625-19.5496875C469.2809375 285.8834375 478.2078125 294.8103125 478.2078125 305.82124999zM735.374375 406.9615625c11.0109375 0 19.9378125-8.9353125 19.9378125-19.93781249l0-81.2025c0-11.0109375-8.926875-19.9378125-19.9378125-19.93781251-30.9065625 0-58.6996875 6.58125001-82.60312499 19.5496875-23.743125 12.8925-43.993125 31.3959375-60.17625001 54.97875-15.7275 22.95-27.64124999 50.641875-35.40375001 82.3246875-7.56 30.898125-11.3990625 65.8884375-11.39906249 104.000625l0 171.45c0 11.0109375 8.926875 19.9378125 19.9378125 19.9378125l169.6359375 0c11.0109375 0 19.9378125-8.9353125 19.93781251-19.9378125l0-171.45c0-11.0109375-8.926875-19.9378125-19.93781251-19.9378125L672.65 526.799375C675.569375 447.2590625 696.629375 406.9615625 735.374375 406.9615625z"></path></svg>