<svg xmlns="http://www.w3.org/2000/svg" xmlns:xlink="http://www.w3.org/1999/xlink" viewBox="0 0 1024 1024"><path d="M672.32 672v68.8A59.52 59.52 0 0 1 612.48 800H283.52A59.52 59.52 0 0 1 224 740.48V411.52A59.52 59.52 0 0 1 283.52 352H352V283.52A59.52 59.52 0 0 1 411.52 224h329.28a59.52 59.52 0 0 1 59.52 59.52v329.28A59.52 59.52 0 0 1 740.48 672h-68.16z m0-64H736V288H416v64h196.8a59.52 59.52 0 0 1 59.52 59.52V608zM288 736h320V416H288v320z m128-64a32 32 0 0 1-22.72-9.28l-64-64a32 32 0 0 1 45.12-45.12l41.28 41.28 105.28-105.28a32 32 0 0 1 45.12 45.12l-128 128A32 32 0 0 1 416 672z"></path></svg>