<svg xmlns="http://www.w3.org/2000/svg" xmlns:xlink="http://www.w3.org/1999/xlink" viewBox="0 0 1024 1024"><path d="M270.51669908 316.14107442m-42.36549141 1e-8a42.36549139 42.36549139 0 1 0 84.7309828 0 42.36549139 42.36549139 0 1 0-84.7309828 0Z"></path><path d="M798.43634618 287.18914938l-433.25558604 0.22812188-0.02607106 53.75203192 433.30121039-0.22812188-0.0195533-53.75203191z"></path><path d="M270.51669908 512m-42.36549141 0a42.36549139 42.36549139 0 1 0 84.7309828 0 42.36549139 42.36549139 0 1 0-84.7309828 0Z"></path><path d="M365.18076014 483.27619684l-0.02607106 53.75203192 433.30121039-0.22812188-0.0195533-53.75203191-433.25558603 0.22812187z"></path><path d="M270.51669908 707.85892558m-42.36549141-1e-8a42.36549139 42.36549139 0 1 0 84.7309828 0 42.36549139 42.36549139 0 1 0-84.7309828 0Z"></path><path d="M365.18076014 679.78038143l-0.02607106 53.75203194 433.30121039-0.22812188-0.0195533-53.75203193-433.25558603 0.22812187z"></path></svg>